<?xml version="1.0" encoding="UTF-8"?>
<svg width="44px" height="44px" viewBox="0 0 44 44" version="1.1" xmlns="http://www.w3.org/2000/svg" xmlns:xlink="http://www.w3.org/1999/xlink">
    <g stroke="none" stroke-width="1" fill="none" fill-rule="evenodd">
        <!--        <path d="M21.9462311,13.0284191 C27.2679493,13.0284191 32.5900989,14.9444862 36.7836178,18.7769113 L21.9489287,33.6141503 L7.11126621,18.7767197 C11.303299,14.9444045 16.6246354,13.0284191 21.9462311,13.0284191 Z" stroke="#FFFFFF" stroke-width="2" fill-rule="nonzero" />-->
        <!--        <path d="M17.8786229,30.9619252 L21.9453812,35.03 L26.0113771,30.9619252 C23.7664894,28.717102 20.1226846,28.717102 17.8786229,30.9619252 Z" fill="#000000" fill-rule="nonzero" />-->
        <path d="M5.68,18.7590356 L9.74669475,22.8263477 C16.4717004,16.0991235 27.418236,16.0991235 34.1440041,22.8263477 L38.21,18.7590356 C29.2394078,9.78698813 14.6497663,9.78698813 5.68,18.7590356 Z" fill="#FFFFFF" fill-rule="nonzero" />
<!--        <path d="M11.7792479,24.8613067 L15.8452438,28.9286823 C19.2081596,25.5646253 24.6810144,25.5646253 28.0439303,28.9286823 L32.110625,24.8613067 C26.503711,19.2516637 17.387115,19.2516637 11.7792479,24.8613067 Z" fill="#FFFFFF" fill-rule="nonzero" />-->
    </g>
</svg>